<svg id="Layer_1" enable-background="new 0 0 64 64" height="512" viewBox="0 0 64 64" width="512" xmlns="http://www.w3.org/2000/svg"><g><g><g><path d="m41 52.75h-10.5v-11h12v9.5c0 .828-.672 1.5-1.5 1.5z" fill="#db9e68"/></g><g><path d="m30.5 52.75c-1.657 0-3-1.343-3-3v-9c0-.552.448-1 1-1 1.105 0 2 .895 2 2z" fill="#eec78e"/></g><g><path d="m33.5 41.75h-3v-11.5c0-.828.672-1.5 1.5-1.5.828 0 1.5.672 1.5 1.5z" fill="#eec78e"/></g><g><path d="m35 44.75c-.828 0-1.5-.672-1.5-1.5v-5c0-.828.672-1.5 1.5-1.5.828 0 1.5.672 1.5 1.5v5c0 .828-.672 1.5-1.5 1.5z" fill="#eec78e"/></g><g><path d="m38 45.75c-.828 0-1.5-.672-1.5-1.5v-4.5c0-.828.672-1.5 1.5-1.5.828 0 1.5.672 1.5 1.5v4.5c0 .828-.672 1.5-1.5 1.5z" fill="#eec78e"/></g><g><path d="m41 46.75c-.828 0-1.5-.672-1.5-1.5v-4c0-.828.672-1.5 1.5-1.5.828 0 1.5.672 1.5 1.5v4c0 .828-.672 1.5-1.5 1.5z" fill="#eec78e"/></g><g><path d="m30.5 46.75v6h6c0-3.314-2.686-6-6-6z" fill="#eec78e"/></g><g><path d="m30.5 52.75h6v3h-6z" fill="#eec78e"/></g><g><path d="m36.5 52.75h4.5v3h-4.5z" fill="#db9e68"/></g><g><circle cx="35" cy="43.25" fill="#db9e68" r="1"/></g><g><circle cx="38" cy="44.25" fill="#db9e68" r="1"/></g><g><circle cx="41" cy="45.25" fill="#db9e68" r="1"/></g><g><path d="m27.5 40.75v2h2c0-1.105-.895-2-2-2z" fill="#db9e68"/></g><g><path d="m30.5 55.75h6v2h-6z" fill="#dbdee3"/></g><g><path d="m36.5 63.75h-7.5v-5c0-.552.448-1 1-1h6.5z" fill="#6fa4d8"/></g><g><path d="m42.5 63.75h-6v-6h5c.552 0 1 .448 1 1z" fill="#5c76b2"/></g><g><path d="m36.5 55.75h4.5v2h-4.5z" fill="#b3b4b6"/></g><g><circle cx="40" cy="60.75" fill="#fbbe18" r="1"/></g></g><g><path d="m32 33.75c-1.93 0-3.5-1.57-3.5-3.5s1.57-3.5 3.5-3.5 3.5 1.57 3.5 3.5-1.57 3.5-3.5 3.5zm0-6c-1.379 0-2.5 1.122-2.5 2.5s1.121 2.5 2.5 2.5 2.5-1.122 2.5-2.5-1.121-2.5-2.5-2.5z" fill="#6fa4d8"/></g><g><circle cx="14" cy="37.75" fill="#5f7abc" r="12"/></g><g><g><path d="m19.983 36.75c-.035-1.362-.14-2.712-.322-4h5.237c-.325-.707-.715-1.375-1.165-2h-4.433c-.372-1.7-.891-3.222-1.579-4.404-1.172-.383-2.421-.596-3.721-.596 1.337 0 2.518 1.976 3.244 5h-6.489c.726-3.024 1.907-5 3.244-5-1.3 0-2.549.213-3.722.596-.686 1.182-1.205 2.704-1.577 4.404h-4.433c-.45.625-.84 1.293-1.165 2h5.237c-.182 1.288-.287 2.638-.322 4h-5.967c-.027.33-.05.662-.05 1s.023.669.05 1h5.966c.035 1.362.14 2.712.322 4h-5.237c.325.707.715 1.375 1.165 2h4.434c.372 1.7.891 3.222 1.579 4.405 1.172.382 2.421.595 3.721.595-1.337 0-2.518-1.976-3.244-5h6.489c-.726 3.024-1.907 5-3.244 5 1.3 0 2.549-.213 3.722-.596.687-1.182 1.207-2.705 1.579-4.405h4.433c.45-.625.84-1.293 1.165-2h-5.237c.182-1.288.287-2.638.322-4h5.966c.027-.331.05-.662.05-1s-.023-.67-.05-1h-5.968zm-9.616-4h7.266c.189 1.236.311 2.581.35 4h-7.966c.039-1.419.161-2.764.35-4zm7.266 10h-7.266c-.189-1.236-.311-2.581-.35-4h7.966c-.039 1.419-.161 2.764-.35 4z" fill="#6fa4d8"/></g></g><g><circle cx="27.5" cy="32.75" fill="#6fa4d8" r=".5"/></g><g><circle cx="32" cy="25.25" fill="#6fa4d8" r=".5"/></g><g><circle cx="37" cy="30.25" fill="#6fa4d8" r=".5"/></g><g><circle cx="40" cy="30.25" fill="#6fa4d8" r=".5"/></g><g><circle cx="32" cy="22.25" fill="#6fa4d8" r=".5"/></g><g><circle cx="52" cy="30.25" fill="#6fa4d8" r="10"/></g><g><g><path d="m51.94 30.25h-7c-.552 0-1-.448-1-1 0-.552.448-1 1-1h7z" fill="#55525b"/></g><g><path d="m58.94 30.25h-7v-2h7c.552 0 1 .448 1 1 0 .552-.448 1-1 1z" fill="#353744"/></g></g><g><path d="m47.94 30.25v2.219c0 .459.312.859.757.97l3.243.811 3.242-.811c.445-.111.758-.511.758-.97v-2.219z" fill="#55525b"/></g><g><path d="m47.94 30.25v2h4v2l3.242-.811c.445-.111.758-.511.758-.97v-2.219z" fill="#353744"/></g><g><path d="m57.94 36.25c.276 0 .5-.224.5-.5v-7.5c0-.276-.224-.5-.5-.5-.276 0-.5.224-.5.5v7.5c0 .276.223.5.5.5z" fill="#f68820"/></g><g><path d="m57.44 36.25h1c.276 0 .5-.224.5-.5v-.5c0-.552-.448-1-1-1-.552 0-1 .448-1 1v.5c0 .276.223.5.5.5z" fill="#fbbe18"/></g><g><circle cx="32.06" cy="10.25" fill="#55525b" r="10"/></g><g><path d="m36.56 9.25c0-2.803-2.564-5.008-5.474-4.398-1.741.365-3.128 1.802-3.448 3.552-.287 1.57.245 3.014 1.236 4.003.718.716 1.186 1.643 1.186 2.657v.186h4v-.186c0-1.012.466-1.939 1.183-2.653.813-.809 1.317-1.923 1.317-3.161z" fill="#fbbe18"/></g><g><path d="m31.06 17.75h2c.552 0 1-.448 1-1v-1.5h-4v1.5c0 .552.448 1 1 1z" fill="#dbdee3"/></g><g><path d="m32.06 15.25h2v1.5c0 .552-.448 1-1 1h-1z" fill="#b3b4b6"/></g><g><path d="m32.06 7c0-.911-.544-1.692-1.323-2.046-1.415.426-2.543 1.56-2.973 2.971.354.78 1.134 1.324 2.046 1.324 1.243.001 2.25-1.006 2.25-2.249z" fill="#fbd301"/></g><g><path d="m32 3.75c-.276 0-.5-.224-.5-.5v-.5c0-.276.224-.5.5-.5s.5.224.5.5v.5c0 .276-.224.5-.5.5z" fill="#fbbe18"/></g><g><path d="m26.804 6.75c-.085 0-.171-.021-.25-.067l-.433-.25c-.239-.138-.321-.444-.183-.683.139-.24.443-.32.683-.183l.433.25c.239.138.321.444.183.683-.093.161-.261.25-.433.25z" fill="#fbbe18"/></g><g><path d="m26.371 13c-.172 0-.34-.089-.433-.25-.139-.239-.057-.545.183-.683l.433-.25c.236-.137.544-.057.682.183.139.239.057.545-.183.683l-.433.25c-.077.046-.164.067-.249.067z" fill="#fbbe18"/></g><g><path d="m37.629 13c-.085 0-.171-.021-.25-.067l-.433-.25c-.239-.138-.321-.444-.183-.683.14-.24.444-.32.683-.183l.433.25c.239.138.321.444.183.683-.093.161-.261.25-.433.25z" fill="#fbbe18"/></g><g><path d="m37.196 6.75c-.172 0-.34-.089-.433-.25-.139-.239-.057-.545.183-.683l.433-.25c.236-.139.544-.058.683.183.139.239.057.545-.183.683l-.433.25c-.078.046-.165.067-.25.067z" fill="#fbbe18"/></g><g><circle cx="32" cy="30.25" fill="#db9e68" r="1.5"/></g></g></svg>