<svg id="Layer_1" enable-background="new 0 0 64 64" height="512" viewBox="0 0 64 64" width="512" xmlns="http://www.w3.org/2000/svg"><g><g><g><path d="m51 10h-18c-2.209 0-4 1.791-4 4v12c0 2.209 1.791 4 4 4h16l2.293 2.293c.194.194.431.276.666.284v.011h2.041c.552 0 1-.448 1-1v-17.588c0-2.209-1.791-4-4-4z" fill="#f68820"/></g><g><path d="m49 10h-16c-2.209 0-4 1.791-4 4v12c0 2.209 1.791 4 4 4h16l2.293 2.293c.63.63 1.707.184 1.707-.707v-17.586c0-2.209-1.791-4-4-4z" fill="#fbbe18"/></g></g><g><circle cx="35" cy="20" fill="#f68820" r="2"/></g><g><circle cx="41" cy="20" fill="#f68820" r="2"/></g><g><circle cx="47" cy="20" fill="#f68820" r="2"/></g><g><g><path d="m31 2h-18c-2.209 0-4 1.791-4 4v17.586c0 .891 1.077 1.337 1.707.707l2.293-2.293h18c2.209 0 4-1.791 4-4v-12c0-2.209-1.791-4-4-4z" fill="#5c76b2"/></g><g><path d="m29 2h-16c-2.209 0-4 1.791-4 4v17.586c0 .891 1.077 1.337 1.707.707l2.293-2.293h16c2.209 0 4-1.791 4-4v-12c0-2.209-1.791-4-4-4z" fill="#6fa4d8"/></g></g><g><g><g><path d="m17 38c-3.314 0-6 2.686-6 6v12h6.5v-2h3.5c1.105 0 2-.896 2-2v-8c0-3.314-2.686-6-6-6z" fill="#eec78e"/></g><g><path d="m21.75 50c-.69 0-1.25-.56-1.25-1.25v-2.75c1.381 0 2.5 1.119 2.5 2.5v.25c0 .69-.56 1.25-1.25 1.25z" fill="#db9e68"/></g><g><circle cx="19" cy="45.5" fill="#55525b" r=".5"/></g><g><circle cx="22" cy="45.5" fill="#55525b" r=".5"/></g><g><path d="m17.5 56h-6.5c0-1.105.895-2 2-2h4.5z" fill="#db9e68"/></g><g><path d="m22 51h-3c0 .552.448 1 1 1h1c.552 0 1-.448 1-1z" fill="#55525b"/></g></g><g><path d="m22 36h-7c-3.314 0-6 2.686-6 6v8c0 1.105.895 2 2 2h2c1.105 0 2-.895 2-2v-3h.5c.828 0 1.5-.672 1.5-1.5v-2c0-.828.672-1.5 1.5-1.5h3.5c1.657 0 3-1.343 3-3 0-1.657-1.343-3-3-3z" fill="#f68820"/></g><g><path d="m15 46c-1.105 0-2 .895-2 2s.895 2 2 2z" fill="#db9e68"/></g><g><path d="m20 56h-9c-1.657 0-3 1.343-3 3v3h15v-3c0-1.657-1.343-3-3-3z" fill="#5c76b2"/></g><g><path d="m11 56c-1.657 0-3 1.343-3 3v3h6v-3c0-1.657-1.343-3-3-3z" fill="#6fa4d8"/></g></g><g><g><g><path d="m47 38c-3.314 0-6 2.686-6 6v8c0 1.104.895 2 2 2h3.5v2h6.5v-12c0-3.314-2.686-6-6-6z" fill="#eec78e"/></g><g><path d="m42.25 50c.69 0 1.25-.56 1.25-1.25v-2.75c-1.381 0-2.5 1.119-2.5 2.5v.25c0 .69.56 1.25 1.25 1.25z" fill="#db9e68"/></g><g><circle cx="45" cy="45.5" fill="#55525b" r=".5"/></g><g><circle cx="42" cy="45.5" fill="#55525b" r=".5"/></g><g><path d="m46.5 56h6.5c0-1.105-.895-2-2-2h-4.5z" fill="#db9e68"/></g><g><path d="m42 51h3c0 .552-.448 1-1 1h-1c-.552 0-1-.448-1-1z" fill="#55525b"/></g></g><g><path d="m49 36h-3c-3.314 0-6 2.686-6 6h5.5c.828 0 1.5.672 1.5 1.5v1c0 .828.672 1.5 1.5 1.5h.5v8c0 1.105-.895 2-2 2h6c1.105 0 2-.895 2-2v-12c0-3.314-2.686-6-6-6z" fill="#55525b"/></g><g><path d="m49 46c1.105 0 2 .895 2 2s-.895 2-2 2z" fill="#db9e68"/></g><g><path d="m53 56h-9c-1.657 0-3 1.343-3 3v3h15v-3c0-1.657-1.343-3-3-3z" fill="#fbbe18"/></g><g><path d="m53 56c1.657 0 3 1.343 3 3v3h-6v-3c0-1.657 1.343-3 3-3z" fill="#f68820"/></g></g><g><path d="m37.646 42.646-1.793-1.793c-.314-.314-.853-.091-.853.354v.793h-6.5c-.276 0-.5.224-.5.5v1c0 .276.224.5.5.5h6.5v.793c0 .445.539.668.854.354l1.793-1.793c.195-.196.195-.512-.001-.708z" fill="#f68820"/></g><g><path d="m35.5 49h-6.5v-.793c0-.445-.539-.668-.854-.354l-1.793 1.793c-.195.195-.195.512 0 .707l1.793 1.793c.315.315.854.092.854-.353v-.793h6.5c.276 0 .5-.224.5-.5v-1c0-.276-.224-.5-.5-.5z" fill="#f68820"/></g><g><circle cx="15" cy="12" fill="#5c76b2" r="2"/></g><g><circle cx="21" cy="12" fill="#5c76b2" r="2"/></g><g><circle cx="27" cy="12" fill="#5c76b2" r="2"/></g></g></svg>